# xmcd
#
# Track frame offsets:
#	150
#	30154
#	54440
#	88998
#	108542
#	138971
#	166419
#	200888
#	239303
#
# Disc length: 3655 seconds
#
# Revision: 0
# Processed by: cddbd v1.5.1PL2 Copyright (c) Steve Scherf et al.
# Submitted via: EasyCDDAExtractor 9.0.0.1
#
DISCID=770e4509
DTITLE=Metallica - Harry O's Park City 25-01-06 Disc 1
DYEAR=2006
DGENRE=Hard Rock
TTITLE0=Creeping Death
TTITLE1=For Whom The Bell Tolls
TTITLE2=Whenever I May Roam
TTITLE3=Fuel
TTITLE4=Welcome Home 
TTITLE5=Sad But True
TTITLE6=Fade To Black
TTITLE7=Master Of Puppets
TTITLE8=Enter Sandman
EXTD=
EXTT0=
EXTT1=
EXTT2=
EXTT3=
EXTT4=
EXTT5=
EXTT6=
EXTT7=
EXTT8=
PLAYORDER=
